<svg xmlns="http://www.w3.org/2000/svg" xmlns:xlink="http://www.w3.org/1999/xlink" viewBox="0 0 134.6 42.7"><defs><radialGradient id="a" cx="-298.58" cy="-695.04" r="58.51" gradientTransform="matrix(0.8, 0, 0, -0.22, 308.89, -159.31)" gradientUnits="userSpaceOnUse"><stop offset="0" stop-color="#646464"/><stop offset="0.29" stop-color="#c8c8c8"/><stop offset="0.97" stop-color="#646464"/><stop offset="1" stop-color="#c8c8c8"/></radialGradient><clipPath id="b" transform="translate(2.9 3.4)"><path d="M22.4.9a7.7,7.7,0,0,0-5.2,2.8,7.1,7.1,0,0,0-1.7,5.4,6.9,6.9,0,0,0,5.2-2.7A7.3,7.3,0,0,0,22.4.9Zm.7,8c-3.1,0-4.4,1.5-6.5,1.5s-3.9-1.5-6.5-1.5A8.9,8.9,0,0,0,3,13.3H3a11.1,11.1,0,0,0-1.5,4.3A16.3,16.3,0,0,0,1.6,22a16.2,16.2,0,0,0,1.2,4.3,30.5,30.5,0,0,0,2.1,4l.2.3C6.5,32.8,8.4,35,10.7,35s2.9-1.4,5.9-1.4S20.2,35,22.4,35s4.2-2.3,5.6-4.3l.4-.6a26.4,26.4,0,0,0,2-3.7l.2-.4a7.5,7.5,0,0,1-4.2-4,7.8,7.8,0,0,1-.6-4.3,7.3,7.3,0,0,1,2.5-4.3l1.3-.9A8.8,8.8,0,0,0,23.1,8.9Z" style="fill:none"/></clipPath></defs><title>logo</title><path d="M34.3,12.4h8.8v13H38.3V16.2H35.7a3.1,3.1,0,0,0-2.1.7,2.7,2.7,0,0,0-.8,1.9,2.5,2.5,0,0,0,.9,1.9,3.2,3.2,0,0,0,2.1.8h1.5v3.8h-3a6.3,6.3,0,0,1-4.7-2,6.1,6.1,0,0,1-2-4.5,6.4,6.4,0,0,1,1.9-4.5A7.1,7.1,0,0,1,34.3,12.4ZM44.5,29.3V12.4h8.9a6.3,6.3,0,0,1,4.7,1.9A5.9,5.9,0,0,1,60,19a5.9,5.9,0,0,1-2,4.5,6.8,6.8,0,0,1-4.7,1.9h-3V21.6h1.4a3.9,3.9,0,0,0,2.3-.7,2.3,2.3,0,0,0,.9-1.9,2.5,2.5,0,0,0-.9-1.9,3.2,3.2,0,0,0-2.3-.9H49.2v13Zm16.5,0V12.4h8.9a6.3,6.3,0,0,1,4.7,1.9A5.9,5.9,0,0,1,76.5,19a5.9,5.9,0,0,1-2,4.5,6.8,6.8,0,0,1-4.7,1.9h-3V21.6h1.4a3.4,3.4,0,0,0,2.2-.7,2.3,2.3,0,0,0,.9-1.9,2.5,2.5,0,0,0-.9-1.9,3.2,3.2,0,0,0-2.3-.9H65.7v13ZM77.5,8.8h4.7V25.5H77.5ZM99,21.8v3.8H91a8.3,8.3,0,0,1-5.4-1.7A5.6,5.6,0,0,1,83.2,19a5.7,5.7,0,0,1,2.3-4.5,8.5,8.5,0,0,1,5.5-2h8v3.8l-3.2,4.3H90.5l3.3-4.3H91.4a3.4,3.4,0,0,0-2.2.7,2.7,2.7,0,0,0-.8,1.9,2.5,2.5,0,0,0,.9,2,3.2,3.2,0,0,0,2.1.8H99ZM117.5,8.1l-6.6,19.5c-.2.4.2.9.7.9h4.8a1,1,0,0,0,1-.7L124,8.3c.2-.4-.2-.9-.7-.9h-4.8A1.2,1.2,0,0,0,117.5,8.1Z" transform="translate(2.9 3.4)" style="fill:#fff"/><path d="M115,7.4a.7.7,0,0,1,.7.9l-6.6,19.5a1.1,1.1,0,0,1-1,.7h-4.8a.7.7,0,0,1-.7-.9l6.6-19.5a1.2,1.2,0,0,1,1.1-.7Z" transform="translate(2.9 3.4)" style="fill:#fff"/><path d="M77.9,9.1V24.8h3.7V9.1ZM34.2,12.9a6,6,0,0,0-4.4,1.8A5.8,5.8,0,0,0,28,18.8a5.3,5.3,0,0,0,1.9,4.1,6,6,0,0,0,4.4,1.9h2.4V22.1h-1a3.8,3.8,0,0,1-2.5-.9,3.3,3.3,0,0,1-1-2.3,2.9,2.9,0,0,1,1-2.3,3.6,3.6,0,0,1,2.4-.9h2.6a.5.5,0,0,1,.5.5V25h3.7V13H34.2Zm10.7,0V28.6h3.7V16.1a.5.5,0,0,1,.5-.5h2.4a3.8,3.8,0,0,1,2.7,1,3.3,3.3,0,0,1,1,2.3,2.8,2.8,0,0,1-1.1,2.3,4.2,4.2,0,0,1-2.6.8h-.9v2.8h2.5a6.6,6.6,0,0,0,4.4-1.7A5.2,5.2,0,0,0,59.3,19a5.8,5.8,0,0,0-1.8-4.3,6,6,0,0,0-4.2-1.8Zm16.5,0V28.6h3.7V16.1a.5.5,0,0,1,.5-.5H68a3.8,3.8,0,0,1,2.7,1,3.3,3.3,0,0,1,1,2.3,2.8,2.8,0,0,1-1.1,2.3A4.2,4.2,0,0,1,68,22h-.9v2.8h2.5A6.6,6.6,0,0,0,74,23.1,5.2,5.2,0,0,0,75.8,19,5.8,5.8,0,0,0,74,14.7a6,6,0,0,0-4.2-1.8Zm29.6,0a7.7,7.7,0,0,0-5.2,1.8,5.2,5.2,0,0,0,0,8.5,7.9,7.9,0,0,0,5.1,1.6h7.5V22.1H91.3a3.8,3.8,0,0,1-2.5-.9,3.1,3.1,0,0,1-1-2.4,2.9,2.9,0,0,1,1-2.3,3.8,3.8,0,0,1,2.5-.9h2.4c.2,0,.3.1.4.3a.4.4,0,0,1-.1.5L91.4,20h4.1l2.9-4V12.9Z" transform="translate(2.9 3.4)" style="fill:#fff"/><path d="M77.8,9.1V24.9h3.8V9.1Zm31.6-.6L103.2,27a.6.6,0,0,0,.6.8h4.1a1,1,0,0,0,.9-.6L115,8.7a.6.6,0,0,0-.6-.8h-4.1A1,1,0,0,0,109.4,8.5ZM34.2,12.8a5.9,5.9,0,0,0-4.5,1.8,5.6,5.6,0,0,0-1.8,4.2A5.7,5.7,0,0,0,29.8,23a6,6,0,0,0,4.4,1.9h2.5V22h-1a3.6,3.6,0,0,1-2.4-.9,2.9,2.9,0,0,1-1-2.3,2.9,2.9,0,0,1,1-2.3,3.6,3.6,0,0,1,2.4-.9h2.9a.4.4,0,0,1,.1.3v9h3.8V12.8Zm10.7,0V28.7h3.8V16.2a.4.4,0,0,1,.1-.3h2.7a3.5,3.5,0,0,1,2.6,1,3.3,3.3,0,0,1,1,2.3A2.7,2.7,0,0,1,54,21.4a4.4,4.4,0,0,1-2.5.8h-.9v2.7h2.6a6.6,6.6,0,0,0,4.4-1.7A5.6,5.6,0,0,0,59.4,19a5.8,5.8,0,0,0-1.8-4.3,5.9,5.9,0,0,0-4.4-1.8Zm16.5,0V28.7h3.8V16.2a.4.4,0,0,1,.1-.3h2.8a3.5,3.5,0,0,1,2.6,1,3.3,3.3,0,0,1,1,2.3,2.7,2.7,0,0,1-1.1,2.2,4.4,4.4,0,0,1-2.5.8h-.9v2.7h2.6a6.6,6.6,0,0,0,4.4-1.7A5.6,5.6,0,0,0,76,19a5.8,5.8,0,0,0-1.8-4.3,5.9,5.9,0,0,0-4.4-1.8Zm29.6,0a8.1,8.1,0,0,0-5.2,1.9,5.2,5.2,0,0,0-2.2,4.1,5.4,5.4,0,0,0,2.2,4.4,8.7,8.7,0,0,0,5.1,1.7h7.5V22H91.3a3.6,3.6,0,0,1-2.4-.9,3.3,3.3,0,0,1-1-2.3,3.2,3.2,0,0,1,1-2.2,3.8,3.8,0,0,1,2.5-.9h2.4c.2,0,.4.1.4.3a.4.4,0,0,1-.1.5l-2.8,3.6h4.2l2.9-4V12.8Zm26.8-4.3L111.6,27a.6.6,0,0,0,.6.8h4.1a1,1,0,0,0,.9-.6l6.2-18.5a.6.6,0,0,0-.6-.8h-4.1A.9.9,0,0,0,117.8,8.5Z" transform="translate(2.9 3.4)" style="fill:url(#a)"/><g style="clip-path:url(#b)"><rect width="37.9" height="21" style="fill:#75bd21"/><rect y="16.7" width="37.9" height="8.7" style="fill:#ffc728"/><rect y="21" width="37.9" height="8.7" style="fill:#ff661c"/><rect y="25.3" width="37.9" height="8.7" style="fill:#cf0f2b"/><rect y="29.8" width="37.9" height="8.7" style="fill:#b01cab"/><rect y="34" width="37.9" height="8.7" style="fill:#00a1de"/></g><path d="M131.7,14.2v1.6a1.9,1.9,0,0,1-1.9,1.9h-1.7a1.9,1.9,0,0,1-1.9-1.9V14.2a1.9,1.9,0,0,1,1.9-1.9h1.7A1.8,1.8,0,0,1,131.7,14.2Z" transform="translate(2.9 3.4)" style="fill:#fff"/><path d="M131.7,20.1v9a2.7,2.7,0,0,1-2.9,2.6h-5.9a1.2,1.2,0,0,1-1.2-1.2v-3a1.2,1.2,0,0,1,1.2-1.2h3.5V23.6H125a1,1,0,0,1-1.1-.9V19.9a.9.9,0,0,1,.9-.8h5.9A1.1,1.1,0,0,1,131.7,20.1Z" transform="translate(2.9 3.4)" style="fill:#fff"/><path d="M129.6,12.8h-1.2a1.8,1.8,0,0,0-1.8,1.8v.9a1.8,1.8,0,0,0,1.8,1.8h1.2a1.8,1.8,0,0,0,1.8-1.8v-.9A1.8,1.8,0,0,0,129.6,12.8Z" transform="translate(2.9 3.4)" style="fill:#c4c4c4"/><path d="M130.6,19.5h-5.5c-.4,0-.8.3-.8.6v2.2c0,.3.4.6.8.6h1.6v4h-3.9a.9.9,0,0,0-.8.8v2.8a.9.9,0,0,0,.8.8h6.3a2.4,2.4,0,0,0,2.4-2.4V20.3A1,1,0,0,0,130.6,19.5Z" transform="translate(2.9 3.4)" style="fill:#c4c4c4"/></svg>