<svg xmlns="http://www.w3.org/2000/svg" xmlns:xlink="http://www.w3.org/1999/xlink" viewBox="0 0 119.8 42.7"><defs><radialGradient id="a" cx="-626.3" cy="-2098.17" r="56.03" gradientTransform="matrix(0.57, 0.1, 0.02, -0.11, 468.93, -150.51)" gradientUnits="userSpaceOnUse"><stop offset="0" stop-color="#646464"/><stop offset="1" stop-opacity="0"/></radialGradient><radialGradient id="b" cx="-297.62" cy="-311.67" r="54.99" gradientTransform="matrix(0.8, 0, 0, -0.22, 303.59, -73.84)" gradientUnits="userSpaceOnUse"><stop offset="0" stop-color="#646464"/><stop offset="0.29" stop-color="#c8c8c8"/><stop offset="0.97" stop-color="#646464"/><stop offset="1" stop-color="#c8c8c8"/></radialGradient><clipPath id="c" transform="translate(4.3 4.3)"><path d="M21,0a8,8,0,0,0-5.2,2.8,6.9,6.9,0,0,0-1.7,5.4,6.8,6.8,0,0,0,5.2-2.7A7.5,7.5,0,0,0,21,0Zm.7,8c-3.1,0-4.4,1.5-6.5,1.5S11.3,8,8.7,8a8.9,8.9,0,0,0-7.1,4.3h0A10.1,10.1,0,0,0,.1,16.6,16.4,16.4,0,0,0,.2,21a20.5,20.5,0,0,0,1.2,4.3,22.1,22.1,0,0,0,2.1,4l.2.3C5.1,31.8,7,34,9.3,34s2.9-1.4,5.9-1.4S18.8,34,21,34s4.2-2.3,5.6-4.3l.4-.6a23.1,23.1,0,0,0,2-3.7l.2-.4A7.4,7.4,0,0,1,25,21a7.7,7.7,0,0,1-.6-4.3,7.1,7.1,0,0,1,2.5-4.3l1.3-.9A8.7,8.7,0,0,0,21.7,8Z" style="fill:none"/></clipPath></defs><title>logo</title><path d="M32.9,11.5h8.8v13H36.9V15.3H34.3a3.1,3.1,0,0,0-2.1.7,2.5,2.5,0,0,0-.8,1.9,2.5,2.5,0,0,0,.9,1.9,3.1,3.1,0,0,0,2.1.8h1.5v3.8H32.9a6.5,6.5,0,0,1-4.7-2,6.2,6.2,0,0,1-2-4.5,6.1,6.1,0,0,1,1.9-4.5,6.5,6.5,0,0,1,4.8-1.9ZM43.1,28.3V11.5H52a6.4,6.4,0,0,1,4.7,1.9,6.3,6.3,0,0,1,1.9,4.7,6,6,0,0,1-2,4.5,6.7,6.7,0,0,1-4.7,1.9h-3V20.7h1.4a3.6,3.6,0,0,0,2.3-.7,2.2,2.2,0,0,0,.9-1.9,2.6,2.6,0,0,0-.9-1.9,3.2,3.2,0,0,0-2.3-.9H47.8v13H43.1Zm16.5,0V11.5h8.9a6.4,6.4,0,0,1,4.7,1.9,6.3,6.3,0,0,1,1.9,4.7,6,6,0,0,1-2,4.5,6.7,6.7,0,0,1-4.7,1.9h-3V20.7h1.4A3.6,3.6,0,0,0,69,20a2.2,2.2,0,0,0,.9-1.9,2.6,2.6,0,0,0-.9-1.9,3.2,3.2,0,0,0-2.3-.9H64.3v13H59.6ZM76.1,7.8h4.7V24.5H76.1Zm21.5,13v3.8h-8a8.6,8.6,0,0,1-5.4-1.7A5.8,5.8,0,0,1,81.8,18a5.7,5.7,0,0,1,2.3-4.5,8.3,8.3,0,0,1,5.5-2h8v3.8l-3.2,4.3H89.1l3.3-4.3H90a3.2,3.2,0,0,0-2.2.7,2.4,2.4,0,0,0-.8,1.9,2.6,2.6,0,0,0,.9,2,3.1,3.1,0,0,0,2.1.8h7.6Zm5.9-9.8h-2.7V7.8h6.9V24.5h-6.9V21.4h2.7V10.9Zm9.3,0h2.7V7.8h-6.9V24.5h6.9V21.4h-2.7V10.9Z" transform="translate(4.3 4.3)" style="fill:url(#a)"/><path d="M76.5,8.2V23.9h3.7V8.2Zm24.7,0v2.1h2.2a.5.5,0,0,1,.5.5V21.3a.5.5,0,0,1-.5.5h-2.2v2.1h5.9V8.2h-5.9Zm7.8,0V23.9h5.9V21.8h-2.2a.5.5,0,0,1-.5-.5V10.8a.5.5,0,0,1,.5-.5h2.2V8.2H109ZM32.8,12a6,6,0,0,0-4.4,1.8,5.6,5.6,0,0,0-1.8,4.1A5.7,5.7,0,0,0,28.5,22a6,6,0,0,0,4.4,1.9h2.4V21.2h-1a3.6,3.6,0,0,1-2.5-.9,3.1,3.1,0,0,1-1-2.3,3,3,0,0,1,1-2.3,3.6,3.6,0,0,1,2.4-.9h2.6a.5.5,0,0,1,.5.5v8.7h3.7V12H32.8Zm10.7,0V27.7h3.7V15.2a.5.5,0,0,1,.5-.5h2.4a3.8,3.8,0,0,1,2.7,1,3.2,3.2,0,0,1,1,2.3,2.8,2.8,0,0,1-1.1,2.3,4.1,4.1,0,0,1-2.6.8h-.9v2.8h2.5a6.1,6.1,0,0,0,4.4-1.7,5.4,5.4,0,0,0,1.8-4.1,5.8,5.8,0,0,0-1.8-4.3A5.9,5.9,0,0,0,51.9,12H43.5ZM60,12V27.7h3.7V15.2a.5.5,0,0,1,.5-.5h2.4a3.8,3.8,0,0,1,2.7,1,3.2,3.2,0,0,1,1,2.3,2.8,2.8,0,0,1-1.1,2.3,4.1,4.1,0,0,1-2.6.8h-.9v2.8h2.5a6.1,6.1,0,0,0,4.4-1.7,5.4,5.4,0,0,0,1.8-4.1,5.8,5.8,0,0,0-1.8-4.3A5.9,5.9,0,0,0,68.4,12H60Zm29.6,0a7.8,7.8,0,0,0-5.2,1.8,5.2,5.2,0,0,0-2.2,4.1,5.2,5.2,0,0,0,2.2,4.4,8.1,8.1,0,0,0,5.1,1.6H97V21.2H89.9a3.6,3.6,0,0,1-2.5-.9,3.2,3.2,0,0,1-1-2.4,3,3,0,0,1,1-2.3,3.7,3.7,0,0,1,2.5-.9h2.4a.5.5,0,0,1,.4.3.5.5,0,0,1-.1.5L90,19.1h4.1l2.9-4V12H89.6Z" transform="translate(4.3 4.3)" style="fill:#fff"/><path d="M76.4,8.2V24h3.8V8.2Zm24.7,0v2.2h2.6a.5.5,0,0,1,.1.3V21.3a.5.5,0,0,1-.1.3h-2.6V24h6V8.2h-6Zm7.8,0V24h6V21.8h-2.6a.5.5,0,0,1-.1-.3V10.8a.5.5,0,0,1,.1-.3h2.6V8.2h-6ZM32.8,11.9a6,6,0,0,0-4.5,1.8,5.6,5.6,0,0,0-1.8,4.2,5.7,5.7,0,0,0,1.9,4.2A6.1,6.1,0,0,0,32.8,24h2.5V21.1h-1a3.6,3.6,0,0,1-2.4-.9,3,3,0,0,1-1-2.3,3,3,0,0,1,1-2.3,3.6,3.6,0,0,1,2.4-.9h2.9a.5.5,0,0,1,.1.3V24h3.8V11.9H32.8Zm10.7,0V27.8h3.8V15.3a.5.5,0,0,1,.1-.3h2.7a3.7,3.7,0,0,1,2.6,1,3.1,3.1,0,0,1,1,2.3,2.8,2.8,0,0,1-1.1,2.2,4.1,4.1,0,0,1-2.5.8h-.9V24h2.6a6.2,6.2,0,0,0,4.4-1.7,5.5,5.5,0,0,0,1.8-4.2,5.8,5.8,0,0,0-1.8-4.3,5.9,5.9,0,0,0-4.4-1.8H43.5Zm16.5,0V27.8h3.8V15.3a.5.5,0,0,1,.1-.3h2.8a3.7,3.7,0,0,1,2.6,1,3.1,3.1,0,0,1,1,2.3,2.8,2.8,0,0,1-1.1,2.2,4.1,4.1,0,0,1-2.5.8h-.9V24h2.6a6.2,6.2,0,0,0,4.4-1.7,5.5,5.5,0,0,0,1.8-4.2,5.8,5.8,0,0,0-1.8-4.3,5.9,5.9,0,0,0-4.4-1.8H60Zm29.6,0a7.8,7.8,0,0,0-5.2,1.9,5.2,5.2,0,0,0-2.2,4.1,5.3,5.3,0,0,0,2.2,4.4A8.1,8.1,0,0,0,89.5,24h7.5V21.1H89.9a3.5,3.5,0,0,1-2.4-.9,3.1,3.1,0,0,1-1-2.3,2.9,2.9,0,0,1,1-2.2,3.6,3.6,0,0,1,2.5-.9h2.4a.4.4,0,0,1,.4.3.5.5,0,0,1-.1.5l-2.8,3.6h4.2l2.9-4V11.9H89.6Z" transform="translate(4.3 4.3)" style="fill:url(#b)"/><g style="clip-path:url(#c)"><rect width="37.9" height="20.98" style="fill:#75bd21"/><rect y="16.6" width="37.9" height="8.68" style="fill:#ffc728"/><rect y="21" width="37.9" height="8.68" style="fill:#ff661c"/><rect y="25.3" width="37.9" height="8.68" style="fill:#cf0f2b"/><rect y="29.7" width="37.9" height="8.67" style="fill:#b01cab"/><rect y="34" width="37.9" height="8.67" style="fill:#00a1de"/></g></svg>